<?xml version="1.0" encoding="UTF-8" standalone="no"?><!-- Generator: Gravit.io --><svg xmlns="http://www.w3.org/2000/svg" xmlns:xlink="http://www.w3.org/1999/xlink" style="isolation:isolate" viewBox="0 0 100 100" width="100pt" height="100pt"><defs><clipPath id="_clipPath_Zwkt2NbASX6xyiQomnwB5zWcRnjqbdqO"><rect width="100" height="100"/></clipPath></defs><g clip-path="url(#_clipPath_Zwkt2NbASX6xyiQomnwB5zWcRnjqbdqO)"><g style="isolation:isolate"><mask id="_mask_HaWdL3h6ALMDUsw90sZGAtVD0vQNogm3"><path d=" M 71.507 79.632 L 50.055 79.723 L 28.603 79.815 C 14.227 79.876 8.535 69.903 15.901 57.556 L 26.122 40.426 L 36.342 23.296 C 43.708 10.949 55.76 10.895 63.238 23.173 L 73.622 40.223 L 84.006 57.274 C 91.484 69.552 85.883 79.571 71.507 79.632 Z " fill="white" stroke="none"/></mask><path d=" M 71.507 79.632 L 50.055 79.723 L 28.603 79.815 C 14.227 79.876 8.535 69.903 15.901 57.556 L 26.122 40.426 L 36.342 23.296 C 43.708 10.949 55.76 10.895 63.238 23.173 L 73.622 40.223 L 84.006 57.274 C 91.484 69.552 85.883 79.571 71.507 79.632 Z " fill="rgb(255,255,255)"/><path d=" M 71.507 79.632 L 50.055 79.723 L 28.603 79.815 C 14.227 79.876 8.535 69.903 15.901 57.556 L 26.122 40.426 L 36.342 23.296 C 43.708 10.949 55.76 10.895 63.238 23.173 L 73.622 40.223 L 84.006 57.274 C 91.484 69.552 85.883 79.571 71.507 79.632 Z " fill="rgb(255,255,255)" mask="url(#_mask_HaWdL3h6ALMDUsw90sZGAtVD0vQNogm3)" vector-effect="non-scaling-stroke" stroke-width="1" stroke="rgb(93,93,93)" stroke-linejoin="miter" stroke-linecap="square" stroke-miterlimit="3"/></g><g style="isolation:isolate"><rect x="47.5" y="7.35" width="5" height="23" transform="matrix(0.989,0.15,-0.15,0.989,3.394,-7.288)" fill="rgb(87,34,43)"/><rect x="50.54" y="9.053" width="5" height="23" transform="matrix(0.901,0.433,-0.433,0.901,14.146,-20.955)" fill="rgb(87,34,43)"/><rect x="46.753" y="11.417" width="5" height="23" transform="matrix(0.936,-0.351,0.351,0.936,-4.911,18.762)" fill="rgb(87,34,43)"/></g><g style="isolation:isolate"><path d=" M 53.269 54.974 L 50.06 54.987 L 46.851 55 C 30.91 55.063 24.922 44.2 33.485 30.755 L 33.891 30.119 L 34.296 29.483 C 42.86 16.038 56.867 15.973 65.556 29.337 L 65.981 29.991 L 66.407 30.645 C 75.096 44.009 69.209 54.91 53.269 54.974 Z " fill="rgb(255,255,255)"/></g><g style="isolation:isolate"><rect x="35" y="52" width="31" height="27.815" transform="matrix(1,0,0,1,0,0)" fill="rgb(93,93,93)"/></g></g></svg>